<?xml version="1.0" standalone="no"?>
<svg width="256" height="256" viewBox="0 0 256 256" version="1.0" xmlns="http://www.w3.org/2000/svg">
	<defs>
		<linearGradient id="gradient" x1="0" x2="0" y1="0" y2="1" gradientTransform="rotate(-45, 0.5, 0.5)">
			<stop stop-color="#F7950F" offset="0%"/>
			<stop stop-color="#F7330E" offset="100%"/>
		</linearGradient>
	</defs>
	<g transform="translate(37.5,37.5)">
	  <rect width="181" height="181" fill="url(#gradient)" rx="40" ry="40" transform="rotate(45, 90.5, 90.5)"/>
	  <g transform="translate(18,150)">
	  	<path fill="white" d="M30.30-29.85C30.60-25.65 31.20-23.70 33-21.15C36.30-15.90 42.60-12.75 49.80-12.75C57.75-12.75 63.75-16.20 67.95-23.25C73.05-16.20 80.10-12.75 89.40-12.75C101.85-12.75 112.05-20.25 115.05-31.80C117.15-31.65 118.35-31.50 119.25-31.50C122.70-31.50 127.35-32.55 130.80-34.20C139.80-38.40 144.15-45.75 144.15-56.55C144.15-65.85 141-72.30 134.55-76.65C130.65-79.35 127.35-80.55 122.10-80.85C122.85-82.80 123-83.70 123-85.20C123-95.10 113.10-103.20 100.95-103.20C91.95-103.20 85.80-99.30 82.50-91.65C79.20-101.55 70.50-107.40 59.25-107.40C43.65-107.40 30.15-94.95 30.15-80.70C30.15-78.90 30.30-77.55 30.90-73.95C28.95-74.55 27.90-74.70 26.25-74.70C14.85-74.70 5.40-64.35 5.40-51.90C5.40-39.60 14.70-29.25 25.80-29.25C27-29.25 28.05-29.40 30.30-29.85Z"/>
	  </g>
	</g>
</svg>
