<?xml version="1.0" standalone="no"?>
<svg width="256" height="256" viewBox="0 0 256 256" version="1.1" xmlns="http://www.w3.org/2000/svg">
	<defs>
		<linearGradient id="gradient" x1="0" x2="0" y1="0" y2="1" gradientTransform="rotate(-45, 0.5, 0.5)">
			<stop stop-color="#F7950F" offset="0%"/>
			<stop stop-color="#F7330E" offset="100%"/>
		</linearGradient>
	</defs>
	<g transform="translate(37.5,37.5)">
	  <rect width="181" height="181" fill="url(#gradient)" rx="40" ry="40" transform="rotate(45, 90.5, 90.5)"/>
	  <g transform="translate(17,145)">
		<path fill="white" d="M118.65-77.71L118.65-77.71L118.65-77.71Q128.91-76.25 135.24-68.74L135.24-68.74L135.24-68.74Q141.58-61.23 141.58-51.42L141.58-51.42L141.58-51.42Q141.58-40.43 133.81-32.67L133.81-32.67L133.81-32.67Q126.05-24.90 115.06-24.90L115.06-24.90L27.47-24.90L27.47-24.90Q19.70-24.90 14.21-30.43L14.21-30.43L14.21-30.43Q8.72-35.96 8.72-43.65L8.72-43.65L8.72-43.65Q8.72-51.34 14.21-56.87L14.21-56.87L14.21-56.87Q19.70-62.40 27.47-62.40L27.47-62.40L27.47-62.40Q30.83-62.40 34.35-60.86L34.35-60.86L34.35-60.86Q35.82-71.63 43.54-78.26L43.54-78.26L43.54-78.26Q51.27-84.89 61.38-84.89L61.38-84.89L61.38-84.89Q70.39-84.89 76.68-80.13L76.68-80.13L76.68-80.13Q78.22-87.96 84.01-92.87L84.01-92.87L84.01-92.87Q89.79-97.78 97.63-97.78L97.63-97.78L97.63-97.78Q105.91-97.78 112.02-92.18L112.02-92.18L112.02-92.18Q118.14-86.57 118.65-77.71ZM37.79-55.22L37.79-55.22L37.79-55.22Q33.40-58.81 27.47-58.81L27.47-58.81L27.47-58.81Q21.31-58.81 16.81-54.31L16.81-54.31L16.81-54.31Q12.30-49.80 12.30-43.65L12.30-43.65L12.30-43.65Q12.30-37.43 16.77-32.96L16.77-32.96L16.77-32.96Q21.24-28.49 27.47-28.49L27.47-28.49L115.06-28.49L115.06-28.49Q124.44-28.49 131.21-35.27L131.21-35.27L131.21-35.27Q137.99-42.04 137.99-51.42L137.99-51.42L137.99-51.42Q137.99-60.86 131.21-67.64L131.21-67.64L131.21-67.64Q124.44-74.41 115.06-74.41L115.06-74.41L115.06-74.41Q105.62-74.41 98.84-67.64L98.84-67.64L98.84-67.64Q92.07-60.86 92.07-51.42L92.07-51.42L88.48-51.42L88.48-51.42Q88.48-62.40 96.28-70.20L96.28-70.20L96.28-70.20Q104.08-78.00 115.06-78.00L115.06-78.00L115.06-78.00Q114.33-85.11 109.35-89.65L109.35-89.65L109.35-89.65Q104.37-94.19 97.63-94.19L97.63-94.19L97.63-94.19Q90.45-94.19 85.36-89.06L85.36-89.06L85.36-89.06Q80.27-83.94 80.27-76.83L80.27-76.83L80.27-73.68L80.27-73.68Q71.70-81.30 61.38-81.30L61.38-81.30L61.38-81.30Q51.78-81.30 44.97-74.19L44.97-74.19L44.97-74.19Q38.16-67.09 37.79-55.22Z"/>
	  </g>
	</g>
</svg>
